<svg width="28" height="28" viewBox="0 0 28 28" fill="none" xmlns="http://www.w3.org/2000/svg">
<path d="M4.85144 16.2524C4.0196 14.866 4.0196 13.134 4.85144 11.7476C5.10528 11.3245 5.52582 11.0282 6.00961 10.9314L7.98481 10.5364C8.10249 10.5128 8.20856 10.4497 8.28539 10.3575L10.6993 7.46082C12.079 5.80524 12.7688 4.97745 13.3844 5.20033C14 5.42321 14 6.50075 14 8.65583L14 19.3442C14 21.4993 14 22.5768 13.3844 22.7997C12.7688 23.0226 12.079 22.1948 10.6993 20.5392L8.28539 17.6425C8.20856 17.5503 8.10249 17.4872 7.98481 17.4636L6.00961 17.0686C5.52582 16.9718 5.10528 16.6755 4.85144 16.2524Z" fill="#222222"/>
<path d="M16.9581 9.87517C18.0465 10.9635 18.6606 12.4379 18.6666 13.977C18.6727 15.5161 18.0702 16.9952 16.9905 18.0921" stroke="#222222" stroke-width="2.33333" stroke-linecap="round"/>
<path d="M21.7664 7.40029C23.5077 9.14163 24.4903 11.5006 24.5 13.9632C24.5097 16.4258 23.5457 18.7924 21.8182 20.5474" stroke="#222222" stroke-width="2.33333" stroke-linecap="round"/>
</svg>
